#!OML:ASF \\sashay\E\Suitcase\Project 1\Capture day 1\Session 1\Male1.ASF
:FULLY-SPECIFIED
:DEGREES
209
root 1.32958 17.6009 -36.9921 9.0341 -3.34397 -1.40103
lowerback 13.6731 -3.52216 7.94383
upperback 5.7443 -3.34754 12.4916
thorax -1.17347 -1.75131 9.50771
lowerneck -7.45945 -11.3191 -8.03989
upperneck 31.6317 -14.9153 -0.153917
head 12.2847 -7.53671 -0.627996
rclavicle -7.15625e-014 -5.40694e-014
rhumerus -16.0962 -14.7158 -59.3404
rradius 26.8784
rwrist 6.79261
rhand -30.8851 35.0754
rfingers 7.12502
rthumb -4.17217 5.13652
lclavicle -7.15625e-014 -5.40694e-014
lhumerus -32.5816 -8.25651 98.8331
lradius 46.2458
lwrist -3.22486
lhand -0.571606 43.3382
lfingers 7.12502
lthumb 25.0428 71.7165
rfemur -20.3154 1.73264 19.8431
rtibia 27.71
rfoot -15.9867 -5.51046
rtoes 10.0661
lfemur -19.7106 -0.672498 -20.1315
ltibia 27.4823
lfoot -17.0173 4.85153
ltoes -2.05574
210
root 1.3295 17.6053 -37.0026 9.12532 -3.29474 -1.10914
lowerback 13.8426 -3.66741 8.03251
upperback 5.9102 -3.52234 12.567
thorax -1.06346 -1.84062 9.57996
lowerneck -7.57541 -11.2545 -8.29735
upperneck 31.5634 -14.8025 -0.00413093
head 12.3149 -7.49362 -0.526638
rclavicle 1.59028e-015 -6.99722e-014
rhumerus -15.4884 -13.9777 -59.3769
rradius 26.7839
rwrist 6.76045
rhand -30.5862 36.087
rfingers 7.12502
rthumb -3.88357 6.1426
lclavicle 1.59028e-015 -6.99722e-014
lhumerus -32.3334 -8.32734 98.8596
lradius 45.9814
lwrist -3.56642
lhand -1.51015 42.2701
lfingers 7.12502
lthumb 24.1431 70.7709
rfemur -20.4861 1.66124 19.4985
rtibia 27.7165
rfoot -15.9384 -5.47312
rtoes 10.0256
lfemur -19.8085 -0.781722 -20.433
ltibia 27.3671
lfoot -16.8291 4.87861
ltoes -3.0776
211
root 1.3271 17.6183 -37.0171 9.27815 -3.55529 -0.990271
lowerback 14.0648 -3.63746 8.04077
upperback 5.94513 -3.44891 12.6941
thorax -1.14313 -1.80812 9.73023
lowerneck -7.20593 -11.237 -8.15859
upperneck 31.3953 -14.7021 -0.397492
head 12.1176 -7.48869 -0.638821
rclavicle -5.40694e-014 6.67916e-014
rhumerus -15.3837 -13.515 -59.3021
rradius 26.9649
rwrist 7.09753
rhand -31.2199 36.5363
rfingers 7.12502
rthumb -4.49552 6.60405
lclavicle -5.40694e-014 6.67916e-014
lhumerus -32.3853 -8.17365 98.853
lradius 46.1159
lwrist -3.80206
lhand -1.03565 42.3935
lfingers 7.12502
lthumb 24.598 70.833
rfemur -20.7257 1.66463 19.3621
rtibia 27.7009
rfoot -15.8619 -5.22872
rtoes 9.82413
lfemur -19.8894 -1.14642 -20.4778
ltibia 27.3258
lfoot -16.8542 5.00371
ltoes -1.17644
212
root 1.32343 17.6178 -37.0328 9.29686 -3.31799 -0.862333
lowerback 14.4778 -3.58433 8.59043
upperback 6.12084 -3.25706 12.6295
thorax -1.22742 -1.69912 9.33777
lowerneck -8.25254 -11.5572 -7.52752
upperneck 31.9669 -15.1605 -0.63242
head 12.4959 -7.61426 -0.977861
rclavicle -3.81667e-014 8.26944e-014
rhumerus -15.052 -14.1086 -59.3036
rradius 26.8875
rwrist 7.29318
rhand -30.926 37.1914
rfingers 7.12502
rthumb -4.21169 7.2533
lclavicle -3.81667e-014 8.26944e-014
lhumerus -32.0613 -8.93258 98.7553
lradius 46.2567
lwrist -3.61185
lhand -1.38638 42.7286
lfingers 7.12502
lthumb 24.2618 71.2135
rfemur -20.781 1.60843 19.2546
rtibia 27.7112
rfoot -15.7836 -5.37359
rtoes 9.51709
lfemur -19.9862 -1.17133 -20.5813
ltibia 27.2145
lfoot -16.7419 4.85799
ltoes -1.7328
213
root 1.3181 17.6204 -37.0571 9.53213 -3.6255 -0.944689
lowerback 14.5257 -3.50801 8.64962
upperback 6.36883 -3.17867 12.9088
thorax -0.970869 -1.66873 9.61245
lowerneck -8.16497 -11.4377 -7.59122
upperneck 31.4885 -14.9067 -0.757008
head 12.2664 -7.53232 -0.948199
rclavicle -9.54166e-015 2.8625e-014
rhumerus -14.2504 -13.6817 -59.2563
rradius 26.7049
rwrist 7.68759
rhand -30.8363 37.5175
rfingers 7.12502
rthumb -4.12508 7.57771
lclavicle -9.54166e-015 2.8625e-014
lhumerus -31.7072 -9.0336 98.8683
lradius 46.4159
lwrist -3.1465
lhand -1.38754 42.7995
lfingers 7.12502
lthumb 24.2607 71.2845
rfemur -21.1766 1.71205 19.3297
rtibia 27.698
rfoot -15.5641 -4.96268
rtoes 11.1614
lfemur -20.2748 -1.19925 -20.4531
ltibia 27.2091
lfoot -16.6045 4.93664
ltoes -1.06752
214
root 1.31485 17.6204 -37.0723 9.72937 -3.46659 -0.708144
lowerback 14.6263 -3.51766 8.84991
upperback 6.36716 -3.14051 12.9988
thorax -1.03297 -1.64667 9.60602
lowerneck -8.09659 -11.5936 -7.73695
upperneck 31.3767 -15.1343 -0.634248
head 12.243 -7.63136 -0.906405
rclavicle 2.06736e-014 -9.54166e-014
rhumerus -14.1733 -13.4683 -59.0064
rradius 26.6682
rwrist 8.15367
rhand -30.8973 37.8201
rfingers 7.12502
rthumb -4.18393 7.88143
lclavicle 2.06736e-014 -9.54166e-014
lhumerus -31.7005 -8.86248 98.9829
lradius 46.5091
lwrist -3.40027
lhand -1.271 42.5389
lfingers 7.12502
lthumb 24.3724 71.009
rfemur -21.4362 1.66843 19.0919
rtibia 27.7271
rfoot -15.4427 -5.26137
rtoes 10.5435
lfemur -20.5704 -1.1857 -20.6869
ltibia 27.1734
lfoot -16.5909 4.82906
ltoes -1.08075
215
root 1.3047 17.6242 -37.0907 9.75715 -3.59586 -0.613336
lowerback 14.9273 -3.48948 8.80055
upperback 6.51341 -3.07825 13.1275
thorax -1.02846 -1.62178 9.79502
lowerneck -7.82467 -11.5274 -7.59499
upperneck 31.0752 -15.0611 -0.645616
head 12.0472 -7.59281 -0.885724
rclavicle 2.8625e-014 -9.54166e-014
rhumerus -13.6357 -13.2824 -59.0894
rradius 26.5639
rwrist 8.70107
rhand -30.834 37.8626
rfingers 7.12502
rthumb -4.12282 7.92278
lclavicle 2.8625e-014 -9.54166e-014
lhumerus -31.5972 -8.8977 98.9181
lradius 46.6764
lwrist -3.43582
lhand -1.39682 42.6503
lfingers 7.12502
lthumb 24.2518 71.1366
rfemur -21.5638 2.01243 18.9838
rtibia 27.8009
rfoot -15.535 -5.42965
rtoes 10.6693
lfemur -20.668 -1.10841 -20.7644
ltibia 27.1523
lfoot -16.4609 4.90399
ltoes -1.08459
